<?xml version="1.0" encoding="UTF-8"?>
<!DOCTYPE svg PUBLIC "-//W3C//DTD SVG 1.1//EN" "http://www.w3.org/Graphics/SVG/1.1/DTD/svg11.dtd">
<svg xmlns="http://www.w3.org/2000/svg" version="1.1" width="256px" height="256px"
     style="shape-rendering:geometricPrecision; text-rendering:geometricPrecision; image-rendering:optimizeQuality; fill-rule:evenodd; clip-rule:evenodd"
>
    <g>
        <path style="opacity:0.03" fill="#000000"
              d="M 255.5,119.5 C 255.5,126.833 255.5,134.167 255.5,141.5C 246.701,200.626 213.701,238.626 156.5,255.5C 137.167,255.5 117.833,255.5 98.5,255.5C 41.7601,238.753 8.76005,201.086 -0.5,142.5C -0.5,134.833 -0.5,127.167 -0.5,119.5C 6.05494,70.1214 31.7216,34.6214 76.5,13C 128.26,-6.48565 174.927,1.84769 216.5,38C 238.783,60.7319 251.783,87.8986 255.5,119.5 Z"/>
    </g>
    <g>
        <path style="opacity:0.975" fill="#48b555"
              d="M 219.5,202.5 C 218.833,202.5 218.167,202.5 217.5,202.5C 248.283,162.031 252.783,118.698 231,72.5C 204.417,28.4541 165.25,7.95411 113.5,11C 82.1086,15.6873 56.442,30.1873 36.5,54.5C 26.6603,65.8382 19.6603,78.8382 15.5,93.5C 12.4413,103.573 10.7747,113.906 10.5,124.5C 9.51836,121.038 9.18503,117.371 9.5,113.5C 16.0291,67.4802 40.5291,35.1468 83,16.5C 136.394,-1.23592 182.06,10.4307 220,51.5C 248.536,89.5902 254.203,130.924 237,175.5C 232.637,185.588 226.803,194.588 219.5,202.5 Z"/>
    </g>
    <g>
        <path style="opacity:1" fill="#25af34"
              d="M 217.5,202.5 C 217.167,202.5 216.833,202.5 216.5,202.5C 211.91,198.425 207.077,193.759 202,188.5C 201.086,189.654 200.253,189.487 199.5,188C 200.252,187.329 200.586,186.496 200.5,185.5C 205.803,180.213 207.636,173.88 206,166.5C 204.144,163.152 201.311,161.152 197.5,160.5C 195.873,158.37 194.04,156.37 192,154.5C 190.434,155.061 189.101,154.394 188,152.5C 187.667,152.833 187.333,153.167 187,153.5C 181.63,148.298 176.464,142.965 171.5,137.5C 171.896,134.956 171.229,132.789 169.5,131C 165.747,129.011 161.747,128.178 157.5,128.5C 155.873,126.37 154.04,124.37 152,122.5C 151.667,122.833 151.333,123.167 151,123.5C 148.667,121.167 146.333,118.833 144,116.5C 143.667,116.833 143.333,117.167 143,117.5C 139.333,113.833 135.667,110.167 132,106.5C 131.667,106.833 131.333,107.167 131,107.5C 128.667,105.167 126.333,102.833 124,100.5C 123.667,100.833 123.333,101.167 123,101.5C 119.333,97.8333 115.667,94.1667 112,90.5C 111.667,90.8333 111.333,91.1667 111,91.5C 108.667,89.1667 106.333,86.8333 104,84.5C 103.667,84.8333 103.333,85.1667 103,85.5C 99.3333,81.8333 95.6667,78.1667 92,74.5C 91.6667,74.8333 91.3333,75.1667 91,75.5C 88.8733,73.8863 87.3733,71.8863 86.5,69.5C 88.2884,68.3775 90.2884,68.2109 92.5,69C 100.844,73.8372 108.844,79.1705 116.5,85C 132.961,93.6777 146.127,90.1777 156,74.5C 159.526,56.4085 152.359,44.5752 134.5,39C 102.386,35.2255 76.3857,46.0589 56.5,71.5C 48.9147,67.6354 42.2481,61.9687 36.5,54.5C 56.442,30.1873 82.1086,15.6873 113.5,11C 165.25,7.95411 204.417,28.4541 231,72.5C 252.783,118.698 248.283,162.031 217.5,202.5 Z"/>
    </g>
    <g>
        <path style="opacity:1" fill="#243f27"
              d="M 86.5,69.5 C 84.4959,70.6728 82.9959,72.3395 82,74.5C 80.5226,78.4299 79.3559,82.4299 78.5,86.5C 76.5646,90.8949 75.2313,95.5615 74.5,100.5C 73.596,101.209 73.2627,102.209 73.5,103.5C 71.9826,103.489 70.8159,102.823 70,101.5C 68.513,102.253 68.3463,103.086 69.5,104C 68.4844,104.519 67.8178,105.353 67.5,106.5C 66.7092,111.308 65.5425,115.642 64,119.5C 62.4943,116.526 60.8276,116.193 59,118.5C 57.6667,115.833 56.3333,115.833 55,118.5C 53.6667,115.833 52.3333,115.833 51,118.5C 49.6667,115.833 48.3333,115.833 47,118.5C 44.9895,114.998 43.6561,114.998 43,118.5C 42.9459,112.875 43.7792,107.042 45.5,101C 44.2513,99.1759 43.0847,99.3426 42,101.5C 41.5357,100.906 41.369,100.239 41.5,99.5C 44.7833,89.2246 49.7833,79.8913 56.5,71.5C 76.3857,46.0589 102.386,35.2255 134.5,39C 152.359,44.5752 159.526,56.4085 156,74.5C 146.127,90.1777 132.961,93.6777 116.5,85C 108.844,79.1705 100.844,73.8372 92.5,69C 90.2884,68.2109 88.2884,68.3775 86.5,69.5 Z"/>
    </g>
    <g>
        <path style="opacity:1" fill="#23ab33"
              d="M 86.5,69.5 C 87.3733,71.8863 88.8733,73.8863 91,75.5C 91.3333,75.1667 91.6667,74.8333 92,74.5C 95.6667,78.1667 99.3333,81.8333 103,85.5C 103.333,85.1667 103.667,84.8333 104,84.5C 106.333,86.8333 108.667,89.1667 111,91.5C 111.333,91.1667 111.667,90.8333 112,90.5C 115.667,94.1667 119.333,97.8333 123,101.5C 123.333,101.167 123.667,100.833 124,100.5C 126.333,102.833 128.667,105.167 131,107.5C 131.333,107.167 131.667,106.833 132,106.5C 135.667,110.167 139.333,113.833 143,117.5C 143.333,117.167 143.667,116.833 144,116.5C 146.333,118.833 148.667,121.167 151,123.5C 151.333,123.167 151.667,122.833 152,122.5C 154.04,124.37 155.873,126.37 157.5,128.5C 152.833,129.833 149.833,132.833 148.5,137.5C 147.683,139.969 147.183,142.635 147,145.5C 144.667,143.167 142.333,140.833 140,138.5C 139.667,138.833 139.333,139.167 139,139.5C 136.667,137.167 134.333,134.833 132,132.5C 131.667,132.833 131.333,133.167 131,133.5C 127.333,129.833 123.667,126.167 120,122.5C 119.667,122.833 119.333,123.167 119,123.5C 116.667,121.167 114.333,118.833 112,116.5C 111.667,116.833 111.333,117.167 111,117.5C 107.333,113.833 103.667,110.167 100,106.5C 99.6667,106.833 99.3333,107.167 99,107.5C 96.6667,105.167 94.3333,102.833 92,100.5C 91.6667,100.833 91.3333,101.167 91,101.5C 87,97.5 83,93.5 79,89.5C 78.5172,88.552 78.3505,87.552 78.5,86.5C 79.3559,82.4299 80.5226,78.4299 82,74.5C 82.9959,72.3395 84.4959,70.6728 86.5,69.5 Z"/>
    </g>
    <g>
        <path style="opacity:1" fill="#22a030"
              d="M 36.5,54.5 C 42.2481,61.9687 48.9147,67.6354 56.5,71.5C 49.7833,79.8913 44.7833,89.2246 41.5,99.5C 39.8993,102.55 38.8993,105.884 38.5,109.5C 35.2172,107.843 31.7172,104.843 28,100.5C 27.6667,100.833 27.3333,101.167 27,101.5C 24,98.5 21,95.5 18,92.5C 17.3292,93.2524 16.4959,93.5858 15.5,93.5C 19.6603,78.8382 26.6603,65.8382 36.5,54.5 Z"/>
    </g>
    <g>
        <path style="opacity:1" fill="#233f26"
              d="M 181.5,72.5 C 184.505,72.253 187.005,73.253 189,75.5C 194.822,86.143 199.822,97.143 204,108.5C 205.856,115.303 203.689,120.136 197.5,123C 192.411,123.826 187.411,123.492 182.5,122C 176.046,119.273 169.712,116.273 163.5,113C 154.335,107.512 153.169,100.678 160,92.5C 166.762,85.2326 173.928,78.5659 181.5,72.5 Z"/>
    </g>
    <g>
        <path style="opacity:1" fill="#23a732"
              d="M 78.5,86.5 C 78.3505,87.552 78.5172,88.552 79,89.5C 83,93.5 87,97.5 91,101.5C 91.3333,101.167 91.6667,100.833 92,100.5C 94.3333,102.833 96.6667,105.167 99,107.5C 99.3333,107.167 99.6667,106.833 100,106.5C 103.667,110.167 107.333,113.833 111,117.5C 111.333,117.167 111.667,116.833 112,116.5C 114.333,118.833 116.667,121.167 119,123.5C 119.333,123.167 119.667,122.833 120,122.5C 123.667,126.167 127.333,129.833 131,133.5C 131.333,133.167 131.667,132.833 132,132.5C 134.333,134.833 136.667,137.167 139,139.5C 139.333,139.167 139.667,138.833 140,138.5C 142.333,140.833 144.667,143.167 147,145.5C 147.183,142.635 147.683,139.969 148.5,137.5C 147.918,149.216 152.918,152.383 163.5,147C 166.783,144.228 169.45,141.061 171.5,137.5C 176.464,142.965 181.63,148.298 187,153.5C 187.333,153.167 187.667,152.833 188,152.5C 189.101,154.394 190.434,155.061 192,154.5C 194.04,156.37 195.873,158.37 197.5,160.5C 194.68,160.248 192.014,160.748 189.5,162C 183.489,167.001 177.156,171.501 170.5,175.5C 168.079,174.109 165.412,173.275 162.5,173C 160.333,170.833 158.167,168.667 156,166.5C 155.333,167.167 154.667,167.833 154,168.5C 150,164.5 145.333,159.833 140,154.5C 139.667,154.833 139.333,155.167 139,155.5C 136.822,154.107 135.822,152.44 136,150.5C 133.925,153.028 133.092,152.861 133.5,150C 126.002,144.534 118.835,138.034 112,130.5C 111.586,130.957 111.086,131.291 110.5,131.5C 105.22,127.722 100.386,123.389 96,118.5C 95.6667,118.833 95.3333,119.167 95,119.5C 92.8219,118.107 91.8219,116.44 92,114.5C 91.3333,115.167 90.6667,115.833 90,116.5C 84.6303,111.298 79.4636,105.965 74.5,100.5C 75.2313,95.5615 76.5646,90.8949 78.5,86.5 Z"/>
    </g>
    <g>
        <path style="opacity:1" fill="#1f932c"
              d="M 38.5,109.5 C 35.7972,128.063 37.7972,146.063 44.5,163.5C 44.4717,166.342 43.1383,167.509 40.5,167C 35.502,163.358 30.6686,159.192 26,154.5C 25.6667,154.833 25.3333,155.167 25,155.5C 21.3333,151.833 17.6667,148.167 14,144.5C 13.6174,145.056 13.1174,145.389 12.5,145.5C 10.7163,138.649 10.0496,131.649 10.5,124.5C 10.7747,113.906 12.4413,103.573 15.5,93.5C 16.4959,93.5858 17.3292,93.2524 18,92.5C 21,95.5 24,98.5 27,101.5C 27.3333,101.167 27.6667,100.833 28,100.5C 31.7172,104.843 35.2172,107.843 38.5,109.5 Z"/>
    </g>
    <g>
        <path style="opacity:1" fill="#203e23"
              d="M 157.5,128.5 C 161.747,128.178 165.747,129.011 169.5,131C 171.229,132.789 171.896,134.956 171.5,137.5C 169.45,141.061 166.783,144.228 163.5,147C 152.918,152.383 147.918,149.216 148.5,137.5C 149.833,132.833 152.833,129.833 157.5,128.5 Z"/>
    </g>
    <g>
        <path style="opacity:1" fill="#21a130"
              d="M 74.5,100.5 C 79.4636,105.965 84.6303,111.298 90,116.5C 90.6667,115.833 91.3333,115.167 92,114.5C 91.8219,116.44 92.8219,118.107 95,119.5C 95.3333,119.167 95.6667,118.833 96,118.5C 100.386,123.389 105.22,127.722 110.5,131.5C 111.086,131.291 111.586,130.957 112,130.5C 118.835,138.034 126.002,144.534 133.5,150C 133.092,152.861 133.925,153.028 136,150.5C 135.822,152.44 136.822,154.107 139,155.5C 139.333,155.167 139.667,154.833 140,154.5C 145.333,159.833 150,164.5 154,168.5C 154.667,167.833 155.333,167.167 156,166.5C 158.167,168.667 160.333,170.833 162.5,173C 165.412,173.275 168.079,174.109 170.5,175.5C 162.066,182.052 152.732,187.052 142.5,190.5C 139.737,190.256 137.571,188.923 136,186.5C 134.434,187.061 133.101,186.394 132,184.5C 131.667,184.833 131.333,185.167 131,185.5C 124.331,178.132 117.331,171.799 110,166.5C 109.667,166.833 109.333,167.167 109,167.5C 104.667,163.167 100.333,158.833 96,154.5C 95.6667,154.833 95.3333,155.167 95,155.5C 92.6667,153.167 90.3333,150.833 88,148.5C 87.6667,148.833 87.3333,149.167 87,149.5C 83.3333,145.833 79.6667,142.167 76,138.5C 75.6667,138.833 75.3333,139.167 75,139.5C 69.8492,135.079 68.0159,129.412 69.5,122.5C 70.0474,115.98 71.3808,109.647 73.5,103.5C 73.2627,102.209 73.596,101.209 74.5,100.5 Z"/>
    </g>
    <g>
        <path style="opacity:1" fill="#203e23"
              d="M 93.5,128.5 C 103.095,127.112 108.762,131.112 110.5,140.5C 109.82,147.906 105.82,150.739 98.5,149C 91.0018,145.867 87.1684,140.367 87,132.5C 89.0129,130.752 91.1795,129.418 93.5,128.5 Z"/>
    </g>
    <g>
        <path style="opacity:1" fill="#20982e"
              d="M 69.5,122.5 C 68.0159,129.412 69.8492,135.079 75,139.5C 75.3333,139.167 75.6667,138.833 76,138.5C 79.6667,142.167 83.3333,145.833 87,149.5C 87.3333,149.167 87.6667,148.833 88,148.5C 90.3333,150.833 92.6667,153.167 95,155.5C 95.3333,155.167 95.6667,154.833 96,154.5C 100.333,158.833 104.667,163.167 109,167.5C 109.333,167.167 109.667,166.833 110,166.5C 117.331,171.799 124.331,178.132 131,185.5C 131.333,185.167 131.667,184.833 132,184.5C 133.101,186.394 134.434,187.061 136,186.5C 137.571,188.923 139.737,190.256 142.5,190.5C 128.317,193.894 115.317,191.061 103.5,182C 97.5,177.333 91.5,172.667 85.5,168C 71.8741,155.617 66.5407,140.45 69.5,122.5 Z"/>
    </g>
    <g>
        <path style="opacity:1" fill="#1d8b2a"
              d="M 44.5,163.5 C 56.5761,187.578 75.2427,204.244 100.5,213.5C 100.062,213.435 99.7284,213.601 99.5,214C 102,216.5 104.5,219 107,221.5C 107.333,221.167 107.667,220.833 108,220.5C 110.333,222.833 112.667,225.167 115,227.5C 115.333,227.167 115.667,226.833 116,226.5C 119.667,230.167 123.333,233.833 127,237.5C 127.333,237.167 127.667,236.833 128,236.5C 130.167,238.667 132.333,240.833 134.5,243C 136.134,243.494 137.801,243.66 139.5,243.5C 77.9269,246.114 36.4269,218.448 15,160.5C 14.0025,155.514 13.1692,150.514 12.5,145.5C 13.1174,145.389 13.6174,145.056 14,144.5C 17.6667,148.167 21.3333,151.833 25,155.5C 25.3333,155.167 25.6667,154.833 26,154.5C 30.6686,159.192 35.502,163.358 40.5,167C 43.1383,167.509 44.4717,166.342 44.5,163.5 Z"/>
    </g>
    <g>
        <path style="opacity:1" fill="#1e3d21"
              d="M 41.5,99.5 C 41.369,100.239 41.5357,100.906 42,101.5C 43.0847,99.3426 44.2513,99.1759 45.5,101C 43.7792,107.042 42.9459,112.875 43,118.5C 43.6561,114.998 44.9895,114.998 47,118.5C 48.3333,115.833 49.6667,115.833 51,118.5C 52.3333,115.833 53.6667,115.833 55,118.5C 56.3333,115.833 57.6667,115.833 59,118.5C 60.8276,116.193 62.4943,116.526 64,119.5C 65.5425,115.642 66.7092,111.308 67.5,106.5C 67.8178,105.353 68.4844,104.519 69.5,104C 68.3463,103.086 68.513,102.253 70,101.5C 70.8159,102.823 71.9826,103.489 73.5,103.5C 71.3808,109.647 70.0474,115.98 69.5,122.5C 66.5407,140.45 71.8741,155.617 85.5,168C 91.5,172.667 97.5,177.333 103.5,182C 115.317,191.061 128.317,193.894 142.5,190.5C 152.732,187.052 162.066,182.052 170.5,175.5C 177.156,171.501 183.489,167.001 189.5,162C 192.014,160.748 194.68,160.248 197.5,160.5C 201.311,161.152 204.144,163.152 206,166.5C 207.636,173.88 205.803,180.213 200.5,185.5C 190.77,196.533 179.104,204.866 165.5,210.5C 144.154,218.451 122.488,219.451 100.5,213.5C 75.2427,204.244 56.5761,187.578 44.5,163.5C 37.7972,146.063 35.7972,128.063 38.5,109.5C 38.8993,105.884 39.8993,102.55 41.5,99.5 Z"/>
    </g>
    <g>
        <path style="opacity:1" fill="#1e3d21"
              d="M 119.5,161.5 C 126.175,161.334 132.842,161.5 139.5,162C 140.554,163.388 140.72,164.888 140,166.5C 136.915,170.093 133.415,173.093 129.5,175.5C 124.238,173.204 120.238,169.537 117.5,164.5C 117.942,163.261 118.609,162.261 119.5,161.5 Z"/>
    </g>
    <g>
        <path style="opacity:1" fill="#439a4d"
              d="M 9.5,113.5 C 9.18503,117.371 9.51836,121.038 10.5,124.5C 10.0496,131.649 10.7163,138.649 12.5,145.5C 13.1692,150.514 14.0025,155.514 15,160.5C 36.4269,218.448 77.9269,246.114 139.5,243.5C 156.132,242.066 171.465,237.066 185.5,228.5C 192.627,224.763 199.294,220.263 205.5,215C 209.747,211.258 213.414,207.092 216.5,202.5C 216.833,202.5 217.167,202.5 217.5,202.5C 218.167,202.5 218.833,202.5 219.5,202.5C 199.701,227.579 173.701,242.079 141.5,246C 82.278,249.321 40.4447,224.154 16,170.5C 8.83637,151.914 6.66971,132.914 9.5,113.5 Z"/>
    </g>
    <g>
        <path style="opacity:1" fill="#21a030"
              d="M 200.5,185.5 C 200.586,186.496 200.252,187.329 199.5,188C 200.253,189.487 201.086,189.654 202,188.5C 207.077,193.759 211.91,198.425 216.5,202.5C 213.414,207.092 209.747,211.258 205.5,215C 199.294,220.263 192.627,224.763 185.5,228.5C 183.873,226.37 182.04,224.37 180,222.5C 179.667,222.833 179.333,223.167 179,223.5C 176.667,221.167 174.333,218.833 172,216.5C 171.667,216.833 171.333,217.167 171,217.5C 168.546,215.559 166.713,213.225 165.5,210.5C 179.104,204.866 190.77,196.533 200.5,185.5 Z"/>
    </g>
    <g>
        <path style="opacity:1" fill="#1f942c"
              d="M 165.5,210.5 C 166.713,213.225 168.546,215.559 171,217.5C 171.333,217.167 171.667,216.833 172,216.5C 174.333,218.833 176.667,221.167 179,223.5C 179.333,223.167 179.667,222.833 180,222.5C 182.04,224.37 183.873,226.37 185.5,228.5C 171.465,237.066 156.132,242.066 139.5,243.5C 137.801,243.66 136.134,243.494 134.5,243C 132.333,240.833 130.167,238.667 128,236.5C 127.667,236.833 127.333,237.167 127,237.5C 123.333,233.833 119.667,230.167 116,226.5C 115.667,226.833 115.333,227.167 115,227.5C 112.667,225.167 110.333,222.833 108,220.5C 107.667,220.833 107.333,221.167 107,221.5C 104.5,219 102,216.5 99.5,214C 99.7284,213.601 100.062,213.435 100.5,213.5C 122.488,219.451 144.154,218.451 165.5,210.5 Z"/>
    </g>
</svg>
